<svg xmlns="http://www.w3.org/2000/svg" width="228" height="228" viewBox="0 0 228 228"><defs><style>.a{fill:#eeebf0;}.b{fill:none;}.c{fill:#513166;}.d{fill:#f4a422;}.e{fill:#cbc2d1;}</style></defs><g transform="translate(-846 -318)"><g transform="translate(0 6)"><g transform="translate(851.6 318.628)"><circle class="a" cx="93.665" cy="93.665" r="93.665" transform="translate(14.4 13.372)"/></g><rect class="b" width="228" height="228" transform="translate(846 312)"/></g><g transform="translate(1081.068 -283.695)"><path class="c" d="M-44.909,661.464H-198.222a4.721,4.721,0,0,0-4.772,4.769v48.029a4.724,4.724,0,0,0,4.772,4.772H-44.909a4.723,4.723,0,0,0,4.769-4.772V666.233A4.721,4.721,0,0,0-44.909,661.464Z" transform="translate(0 71.991)"/><path class="c" d="M-137.076,652.024v19.4a4.726,4.726,0,0,1-4.772,4.772,4.726,4.726,0,0,1-4.772-4.772v-19.4a14.293,14.293,0,0,0-14.313-14.313,14.293,14.293,0,0,0-14.313,14.313v19.4a4.726,4.726,0,0,1-4.772,4.772,4.726,4.726,0,0,1-4.772-4.772v-19.4a23.866,23.866,0,0,1,23.857-23.853A23.866,23.866,0,0,1-137.076,652.024Z" transform="translate(39.365 0)"/><path class="d" d="M-125.78,640.341h-57.254a4.726,4.726,0,0,0-4.772,4.772v47.71a4.726,4.726,0,0,0,4.772,4.772h57.254a4.723,4.723,0,0,0,4.769-4.772v-47.71A4.723,4.723,0,0,0-125.78,640.341Z" transform="translate(32.842 26.316)"/><path class="e" d="M-174.336,667.646a4.774,4.774,0,0,0-6.748,0l-3.371,3.374-3.374-3.374a4.774,4.774,0,0,0-6.748,0,4.774,4.774,0,0,0,0,6.748l3.374,3.371-3.374,3.374a4.774,4.774,0,0,0,0,6.748,4.773,4.773,0,0,0,6.748,0l3.374-3.374,3.371,3.374a4.773,4.773,0,0,0,6.748,0,4.774,4.774,0,0,0,0-6.748l-3.374-3.374,3.374-3.371A4.774,4.774,0,0,0-174.336,667.646Z" transform="translate(15.178 82.338)"/><path class="e" d="M-165.286,667.646a4.77,4.77,0,0,0-6.745,0l-3.374,3.374-3.374-3.374a4.77,4.77,0,0,0-6.745,0,4.773,4.773,0,0,0,0,6.748l3.374,3.371-3.374,3.374a4.773,4.773,0,0,0,0,6.748,4.769,4.769,0,0,0,6.745,0l3.374-3.374,3.374,3.374a4.769,4.769,0,0,0,6.745,0,4.768,4.768,0,0,0,0-6.748l-3.371-3.374,3.371-3.371A4.768,4.768,0,0,0-165.286,667.646Z" transform="translate(34.754 82.338)"/><path class="e" d="M-159.6,677.766l3.374-3.371a4.774,4.774,0,0,0,0-6.748,4.774,4.774,0,0,0-6.748,0l-3.371,3.374-3.374-3.374a4.774,4.774,0,0,0-6.748,0,4.773,4.773,0,0,0,0,6.748l3.374,3.371-3.374,3.374a4.774,4.774,0,0,0,0,6.748,4.773,4.773,0,0,0,6.748,0l3.374-3.374,3.371,3.374a4.773,4.773,0,0,0,6.748,0,4.774,4.774,0,0,0,0-6.748Z" transform="translate(54.327 82.338)"/><path class="e" d="M-152.368,680.06h-9.544a4.77,4.77,0,0,1-4.772-4.772,4.77,4.77,0,0,1,4.772-4.772h9.544a4.769,4.769,0,0,1,4.769,4.772A4.769,4.769,0,0,1-152.368,680.06Z" transform="translate(78.515 91.564)"/><path class="c" d="M-169.21,651.148v9.541a4.726,4.726,0,0,1-4.772,4.772,4.726,4.726,0,0,1-4.772-4.772v-9.541a4.726,4.726,0,0,1,4.772-4.772A4.726,4.726,0,0,1-169.21,651.148Z" transform="translate(52.415 39.365)"/></g></g></svg>