<svg xmlns="http://www.w3.org/2000/svg" width="228" height="228" viewBox="0 0 228 228"><defs><style>.a{fill:#eeebf0;}.b{fill:#e8821c;}.c{fill:#f4a422;}.d{fill:#edc17c;}.e{fill:#9783a3;}.f{fill:#f4c167;}.g{fill:#4a4a56;}.h{fill:#d8b4ad;}.i{fill:#ba7b1e;}.j{fill:#f3cc92;}.k{fill:#734c12;}.l{fill:#e89925;}.m{fill:#281833;}.n{fill:#513166;}.o{fill:none;}</style></defs><g transform="translate(-846 -319)"><g transform="translate(852 326.057)"><circle class="a" cx="93.665" cy="93.665" r="93.665" transform="translate(14.4 13.372)"/><g transform="translate(0 0)"><path class="b" d="M-174.266,671.564l-5.76-4.325,19.451-24.5a11.054,11.054,0,0,0,1.8-11.888,11.728,11.728,0,0,0-15.13-6.843l-2.158.72-2.522-6.844,2.163-.719a18.744,18.744,0,0,1,24.5,10.8,19.235,19.235,0,0,1-2.882,19.092Z" transform="translate(303.231 -609.871)"/><path class="b" d="M-158.034,667.443l-28.1-3.242c-10.8-1.079-18.732-11.165-17.653-21.974a20.189,20.189,0,0,1,12.612-16.573l3.242-1.439,2.518,6.843-3.242,1.443a12.9,12.9,0,0,0-7.2,16.569A12.612,12.612,0,0,0-185.413,657l28.1,3.242Z" transform="translate(226.118 -582.697)"/><path class="c" d="M-140.615,704.2l-14.047-1.443a43.205,43.205,0,0,1-36.385-27.379l-9.37-23.777a7.317,7.317,0,0,1,3.966-9.366h.36l76.011-27.374c3.6-1.443,7.923.719,9.366,4.321l7.927,23.777a43.036,43.036,0,0,1-8.287,41.789l-9.726,11.165,38.543,100.867h14.411a6.6,6.6,0,0,1,6.484,4.685l2.163,5.4-52.958,20.89-2.158-5.4a7.249,7.249,0,0,1,1.8-7.927l10.445-10.085Z" transform="translate(235.718 -614.405)"/><path class="d" d="M-178.882,669.261l-5.045-5.045c15.854-15.85-.355-42.145-.355-42.509l6.12-3.961C-177.438,619.185-159.066,649.446-178.882,669.261Z" transform="translate(289.474 -603.607)"/><path class="b" d="M-127.118,662.266a6.922,6.922,0,0,0-6.484-4.685h-14.411l-19.811,7.927-10.445,10.086a7.249,7.249,0,0,0-1.8,7.927l2.158,5.4,52.958-20.895Z" transform="translate(301.474 -474.85)"/><path class="e" d="M-145.922,686.193l-36.016,14.77-14.432-43.592,36.016-14.432Z" transform="translate(250.403 -522.173)"/><g transform="translate(0 12.7)"><path class="f" d="M-150.071,617.406v3.6a21.677,21.677,0,0,1-21.614,21.614,21.677,21.677,0,0,1,21.614,21.614v0a21.677,21.677,0,0,1,21.614-21.614,21.677,21.677,0,0,1-21.614-21.614Z" transform="translate(330.191 -617.406)"/><path class="f" d="M-187.523,634.429v3.6a21.681,21.681,0,0,1-21.614,21.618,21.677,21.677,0,0,1,21.614,21.614v0a21.677,21.677,0,0,1,21.614-21.614,21.681,21.681,0,0,1-21.614-21.618Z" transform="translate(209.137 -562.383)"/><path class="f" d="M-146.666,634.429v3.6a21.68,21.68,0,0,1-21.614,21.618,21.677,21.677,0,0,1,21.614,21.614v0a21.677,21.677,0,0,1,21.614-21.614,21.681,21.681,0,0,1-21.614-21.618Z" transform="translate(341.197 -562.383)"/></g><path class="g" d="M-183.2,678.145l6.484-2.158-10.445-31.344-6.484,2.522Z" transform="translate(259.211 -516.669)"/><path class="h" d="M-157.855,637.068l-20.895,7.2,2.163,6.484,21.254-6.843Z" transform="translate(307.355 -541.153)"/><path class="h" d="M-156.516,641.409l-20.531,6.843,2.158,6.484,20.895-6.844Z" transform="translate(312.86 -527.122)"/><path class="h" d="M-155.53,645.665l-19.815,6.844,2.158,6.484,20.175-6.484Z" transform="translate(318.361 -513.365)"/><path class="i" d="M-174.266,671.564l-5.76-4.325,19.451-24.5a11.054,11.054,0,0,0,1.8-11.888,11.728,11.728,0,0,0-15.13-6.843l-2.158.72-2.522-6.844,2.163-.719a18.744,18.744,0,0,1,24.5,10.8,19.235,19.235,0,0,1-2.882,19.092Z" transform="translate(303.231 -609.871)"/><path class="i" d="M-158.034,667.443l-28.1-3.242c-10.8-1.079-18.732-11.165-17.653-21.974a20.189,20.189,0,0,1,12.612-16.573l3.242-1.439,2.518,6.843-3.242,1.443a12.9,12.9,0,0,0-7.2,16.569A12.612,12.612,0,0,0-185.413,657l28.1,3.242Z" transform="translate(226.118 -582.697)"/><path class="c" d="M-140.615,704.2l-14.047-1.443a43.205,43.205,0,0,1-36.385-27.379l-9.37-23.777a7.317,7.317,0,0,1,3.966-9.366h.36l76.011-27.374c3.6-1.443,7.923.719,9.366,4.321l7.927,23.777a43.036,43.036,0,0,1-8.287,41.789l-9.726,11.165,38.543,100.867h14.411a6.6,6.6,0,0,1,6.484,4.685l2.163,5.4-52.958,20.89-2.158-5.4a7.249,7.249,0,0,1,1.8-7.927l10.445-10.085Z" transform="translate(235.718 -614.405)"/><path class="j" d="M-178.882,669.261l-5.045-5.045c15.854-15.85-.355-42.145-.355-42.509l6.12-3.961C-177.438,619.185-159.066,649.446-178.882,669.261Z" transform="translate(289.474 -603.607)"/><path class="i" d="M-127.118,662.266a6.922,6.922,0,0,0-6.484-4.685h-14.411l-19.811,7.927-10.445,10.086a7.249,7.249,0,0,0-1.8,7.927l2.158,5.4,52.958-20.895Z" transform="translate(301.474 -474.85)"/><path class="k" d="M-114.346,703.039l-28.483,14.051a7.009,7.009,0,0,1-3.936.719l-26.663-3.216L-187.86,671.34l2.878-14.39a8.645,8.645,0,0,1,4.317-5.079l39.656-17.267h.339a7.378,7.378,0,0,1,9.4,4.317l20.526,55.1A7.631,7.631,0,0,1-114.346,703.039Z" transform="translate(277.909 -550.573)"/><path class="l" d="M-150.071,617.406v3.6a21.677,21.677,0,0,1-21.614,21.614,21.677,21.677,0,0,1,21.614,21.614v0a21.677,21.677,0,0,1,21.614-21.614,21.677,21.677,0,0,1-21.614-21.614Z" transform="translate(330.191 -604.706)"/><path class="l" d="M-187.523,634.429v3.6a21.681,21.681,0,0,1-21.614,21.618,21.677,21.677,0,0,1,21.614,21.614v0a21.677,21.677,0,0,1,21.614-21.614,21.681,21.681,0,0,1-21.614-21.618Z" transform="translate(209.137 -549.683)"/><path class="l" d="M-146.666,634.429v3.6a21.68,21.68,0,0,1-21.614,21.618,21.677,21.677,0,0,1,21.614,21.614v0a21.677,21.677,0,0,1,21.614-21.614,21.681,21.681,0,0,1-21.614-21.618Z" transform="translate(341.197 -549.683)"/><path class="m" d="M-140.349,689.942l-22.024,9.2-24.478-40.287,32.071-12.506Z" transform="translate(208.814 -511.151)"/><path class="n" d="M-183.2,678.145l6.484-2.158-10.445-31.344-6.484,2.522Z" transform="translate(259.211 -516.669)"/></g></g><rect class="o" width="228" height="228" transform="translate(846 319)"/></g></svg>