<svg xmlns="http://www.w3.org/2000/svg" width="721" height="960" viewBox="0 0 721 960"><defs><style>.a{fill:#201429;}.b{fill:#412752;}.c{fill:#9783a3;}.d{fill:#fff;}.e{fill:#a898b3;}.f{fill:#cbc2d1;}.g{fill:#eeebf0;}.h{fill:#513166;}.i{fill:#829af8;}.j{fill:#311d3d;}</style></defs><g transform="translate(-276.331 -538.657)"><g transform="translate(276.331 538.657)"><rect class="a" width="239.73" height="239.814" transform="translate(479.486 0.46)"/><rect class="b" width="239.73" height="239.814" transform="translate(479.486 240.046)"/><rect class="c" width="239.73" height="239.814" transform="translate(479.486 479.633)"/><path class="d" d="M-153.456,761.922H-347.846V567.465Z" transform="translate(827.319 197.163)"/><path class="d" d="M-118.785,563.725V791.907l-228.1-228.182Z" transform="translate(838.002 155.532)"/><path class="e" d="M-247.684,504.415A119.959,119.959,0,0,0-367.616,624.268V504.415Z" transform="translate(607.353 -503.957)"/><path class="f" d="M-237.915,504.415V624.268A119.856,119.856,0,0,0-357.726,504.415Z" transform="translate(717.391 -503.957)"/><path class="g" d="M-237.915,514.3V634.269H-357.726A119.882,119.882,0,0,0-237.915,514.3Z" transform="translate(717.391 -393.984)"/><path class="b" d="M-247.684,634.269H-367.616V514.3A119.985,119.985,0,0,0-247.684,634.269Z" transform="translate(607.353 -393.984)"/><path class="d" d="M-127.874,624.268A119.882,119.882,0,0,1-247.684,744.242,119.985,119.985,0,0,1-367.616,624.268,119.959,119.959,0,0,1-247.684,504.415,119.855,119.855,0,0,1-127.874,624.268Z" transform="translate(607.351 -503.957)"/><rect class="f" width="239.73" height="239.814" transform="translate(239.764 240.046)"/><rect class="a" width="239.73" height="239.814" transform="translate(239.764 479.633)"/><rect class="d" width="239.73" height="239.814" transform="translate(239.764 719.219)"/><path class="f" d="M-147.642,504.415V744.243L-387.386,504.415Z" transform="translate(387.389 -503.955)"/><path class="e" d="M-147.642,744.243H-387.386V504.415Z" transform="translate(387.389 -503.955)"/><rect class="d" width="239.73" height="239.814" transform="translate(0.041 240.046)"/><rect class="e" width="239.743" height="239.827" transform="translate(0.004 479.659)"/><rect class="d" width="239.73" height="239.814" transform="translate(0.041 719.219)"/><path class="h" d="M-127.874,624.268A119.882,119.882,0,0,1-247.684,744.242,119.985,119.985,0,0,1-367.616,624.268,119.959,119.959,0,0,1-247.684,504.415,119.855,119.855,0,0,1-127.874,624.268Z" transform="translate(607.351 -503.957)"/><ellipse class="c" cx="67.034" cy="67.058" rx="67.034" ry="67.058" transform="translate(292.595 53.31)"/><path class="h" d="M-209.405,595.576a67.048,67.048,0,0,1-67,67.1,67.113,67.113,0,0,1-67.085-67.1A67.1,67.1,0,0,1-276.4,528.541,67.035,67.035,0,0,1-209.405,595.576Z" transform="translate(875.795 -235.656)"/><ellipse class="c" cx="37.49" cy="37.503" rx="37.49" ry="37.503" transform="translate(561.872 322.438)"/><path class="h" d="M-104.259,665.591A121.667,121.667,0,0,1-225.841,787.343a121.767,121.767,0,0,1-121.71-121.752,121.734,121.734,0,0,1,121.71-121.638A121.634,121.634,0,0,1-104.259,665.591Z" transform="translate(825.259 -67.894)"/><ellipse class="c" cx="65.043" cy="65.065" rx="65.043" ry="65.065" transform="translate(534.327 530.93)"/><path class="h" d="M-146.794,750.543a178.655,178.655,0,0,1-.849,18.075c-.364,5.1-.97,10.19-1.819,15.164H-387.386V546.866a196.632,196.632,0,0,1,34.076-2.912c108.048,0,196.572,82.975,205.667,188.514A178.65,178.65,0,0,1-146.794,750.543Z" transform="translate(387.386 -64.298)"/><path class="c" d="M-237.865,667.071a114.525,114.525,0,0,1-4.851,33.117h-144.67V556.56a115.516,115.516,0,0,1,33.954-5.095A115.559,115.559,0,0,1-237.865,667.071Z" transform="translate(387.386 19.269)"/><rect class="a" width="239.73" height="239.814" transform="translate(243.325 720.182)"/><path class="f" d="M-367.32,693.591l121.23-119.9,121.234,119.907Z" transform="translate(607.907 266.407)"/><path class="b" d="M-367.321,803.616V563.8h119.874v119.91Z" transform="translate(607.91 156.381)"/><rect class="i" width="119.865" height="119.907" transform="translate(0.041 359.889)"/><rect class="j" width="119.865" height="119.907" transform="translate(0.041 359.889)"/><rect class="c" width="119.841" height="119.883" transform="translate(119.903 240.104)"/><rect class="f" width="119.841" height="119.883" rx="59.92" transform="translate(119.903 359.901)"/><rect class="h" width="119.841" height="119.883" rx="59.92" transform="translate(0.053 240.104)"/><path class="a" d="M-367.6,763.99l119.856-119.9L-367.614,524.185Z" transform="translate(607.37 -284.129)"/><path class="b" d="M-247.758,534.069l119.865,119.907H-367.614Z" transform="translate(607.377 -174.172)"/><path class="e" d="M-237.862,524.184-357.73,644.1l119.871,119.913Z" transform="translate(717.342 -284.138)"/><path class="e" d="M-127.029,543.954-367.691,784.7H-127.02Z" transform="translate(606.514 -64.312)"/><path class="d" d="M-235.712,548.31H-362.67v127Z" transform="translate(662.375 -15.808)"/><rect class="f" width="119.883" height="119.925" transform="translate(479.489 479.698)"/><rect class="f" width="240.542" height="40.292" transform="translate(0.053 756.37)"/><rect class="h" width="240.542" height="40.292" transform="translate(0.053 837.495)"/><rect class="j" width="240.542" height="40.292" transform="translate(0.053 918.741)"/><rect class="f" width="240.626" height="40.278" transform="translate(719.217 0) rotate(90)"/><rect class="h" width="240.626" height="40.278" transform="translate(637.999 0) rotate(90)"/><rect class="j" width="240.626" height="40.278" transform="translate(556.784 0) rotate(90)"/><path class="f" d="M-171.858,676.907v57.015l-170.257-170.2h56.994Z" transform="translate(891.075 155.532)"/><path class="j" d="M-211.3,708.828h-56.874l-79.672-79.578V572.235Z" transform="translate(827.319 250.256)"/></g></g></svg>