<svg xmlns="http://www.w3.org/2000/svg" width="24" height="24" viewBox="0 0 24 24"><defs><style>.a{fill:none;}.b{fill:#513166;}</style></defs><g transform="translate(0.001 0.001)"><rect class="a" width="24" height="24" transform="translate(-0.001 -0.001)"/><g transform="translate(2.035 2.495)"><g transform="translate(5.976 4.149)"><path class="b" d="M704.909,1000.893H694.44v-1.5h10.469a1.987,1.987,0,0,0,1.984-1.985v-7.979h1.5v7.979A3.489,3.489,0,0,1,704.909,1000.893Z" transform="translate(-694.44 -989.429)"/></g><g transform="translate(4.167 10.713)"><path class="b" d="M696.762,1004.292l-4.131-4.131,4.169-4.168,1.061,1.061-3.108,3.107,3.07,3.07Z" transform="translate(-692.631 -995.993)"/></g><g transform="translate(0 3.399)"><path class="b" d="M689.964,1000.143h-1.5v-7.98a3.488,3.488,0,0,1,3.484-3.484h10.469v1.5H691.948a1.986,1.986,0,0,0-1.984,1.984Z" transform="translate(-688.464 -988.679)"/></g><g transform="translate(10.533)"><path class="b" d="M700.058,993.578,699,992.518l3.107-3.107-3.069-3.069,1.061-1.061,4.13,4.13Z" transform="translate(-698.997 -985.28)"/></g></g></g></svg>