<svg xmlns="http://www.w3.org/2000/svg" width="228" height="228" viewBox="0 0 228 228"><defs><style>.a{fill:none;}.b{fill:#eeebf0;}.c{fill:#513166;}.d{fill:#f4a422;}</style></defs><g transform="translate(-974 -256)"><rect class="a" width="228" height="228" transform="translate(974 256)"/><g transform="translate(-111.887 -339.152)"><circle class="b" cx="93.821" cy="93.821" r="93.821" transform="translate(1107.836 615.152)"/><path class="c" d="M1159.8,670.675a17.89,17.89,0,1,0-17.889,17.89A17.911,17.911,0,0,0,1159.8,670.675Z"/><path class="d" d="M1103.887,732.386v16.659h76.049V732.386a38.025,38.025,0,0,0-76.049,0Z"/><path class="c" d="M1275.344,670.675a17.89,17.89,0,1,0-17.89,17.89A17.911,17.911,0,0,0,1275.344,670.675Z"/><path class="d" d="M1219.429,732.386v16.659h76.05V732.386a38.025,38.025,0,0,0-76.05,0Z"/><path class="c" d="M1231.078,644.573a29.421,29.421,0,1,0-29.421,29.421A29.456,29.456,0,0,0,1231.078,644.573Z"/><path class="c" d="M1139.122,746.062v27.4h125.07v-27.4a62.535,62.535,0,0,0-125.07,0Z"/></g></g></svg>