<svg xmlns="http://www.w3.org/2000/svg" width="24" height="24" viewBox="0 0 24 24"><defs><style>.a{fill:none;}.b{fill:#fdeeee;}</style></defs><g transform="translate(-734 -655)"><rect class="a" width="24" height="24" transform="translate(734 655)"/><g transform="translate(738 658.032)"><path class="b" d="M16.112,15.453,8.35,2.122a.315.315,0,0,0-.273-.156.309.309,0,0,0-.269.156L.044,15.453a.312.312,0,0,0,.269.473H15.842a.314.314,0,0,0,.272-.157.338.338,0,0,0,.041-.157A.3.3,0,0,0,16.112,15.453ZM9.139,6.7,8.881,12H7.547L7.29,6.7Zm-.926,8.013H8.19a1.054,1.054,0,1,1,.023,0Z" transform="translate(0)"/></g></g></svg>