<svg xmlns="http://www.w3.org/2000/svg" xmlns:xlink="http://www.w3.org/1999/xlink" width="185" height="185" viewBox="0 0 185 185"><defs><style>.a{fill:#fff;}.b{fill:#513166;}.c{filter:url(#a);}</style><filter id="a" x="0" y="0" width="185" height="185" filterUnits="userSpaceOnUse"><feOffset dy="3" input="SourceAlpha"/><feGaussianBlur stdDeviation="3" result="b"/><feFlood flood-opacity="0.161"/><feComposite operator="in" in2="b"/><feComposite in="SourceGraphic"/></filter></defs><g transform="translate(-306 -116)"><g class="c" transform="matrix(1, 0, 0, 1, 306, 116)"><rect class="a" width="167" height="167" rx="12" transform="translate(9 6)"/></g><path class="b" d="M4,0H6a4,4,0,0,1,4,4V41a0,0,0,0,1,0,0H0a0,0,0,0,1,0,0V4A4,4,0,0,1,4,0Z" transform="translate(335 228)"/><path class="b" d="M4,0H6a4,4,0,0,1,4,4V54a0,0,0,0,1,0,0H0a0,0,0,0,1,0,0V4A4,4,0,0,1,4,0Z" transform="translate(394 215)"/><path class="b" d="M4,0H6a4,4,0,0,1,4,4V78a0,0,0,0,1,0,0H0a0,0,0,0,1,0,0V4A4,4,0,0,1,4,0Z" transform="translate(365 191)"/><path class="b" d="M4,0H6a4,4,0,0,1,4,4V76a0,0,0,0,1,0,0H0a0,0,0,0,1,0,0V4A4,4,0,0,1,4,0Z" transform="translate(423 193)"/><path class="b" d="M4,0H6a4,4,0,0,1,4,4V107a0,0,0,0,1,0,0H0a0,0,0,0,1,0,0V4A4,4,0,0,1,4,0Z" transform="translate(452 162)"/><g transform="translate(0 11)"><path class="b" d="M1.5,0H53.306a1,1,0,0,1,1,1V3a0,0,0,0,1,0,0H1.5A1.5,1.5,0,0,1,0,1.5v0A1.5,1.5,0,0,1,1.5,0Z" transform="translate(335 203.531) rotate(-49)"/><path class="b" d="M3,0H38.292a0,0,0,0,1,0,0V3a0,0,0,0,1,0,0H0A0,0,0,0,1,0,3V3A3,3,0,0,1,3,0Z" transform="translate(371.969 161) rotate(41)"/><path class="b" d="M0,0H85.581a1,1,0,0,1,1,1V2a1,1,0,0,1-1,1H1A1,1,0,0,1,0,2V0A0,0,0,0,1,0,0Z" transform="translate(397.564 186.984) rotate(-43)"/><path class="b" d="M4.5,0,9,8H0Z" transform="translate(462.938 121.006) rotate(43)"/></g></g></svg>