<svg xmlns="http://www.w3.org/2000/svg" width="24" height="24" viewBox="0 0 24 24"><defs><style>.a{fill:none;}.b{fill:#b0b3bb;}</style></defs><rect class="a" width="24" height="24"/><g transform="translate(2.999 2.999)"><g transform="translate(0 2.911)"><rect class="b" width="17.897" height="1.5"/></g><g transform="translate(1.851 2.911)"><path class="b" d="M750.087,920.107H743.2a2.973,2.973,0,0,1-2.969-2.815l-.684-12.917h14.2l-.685,12.917A2.973,2.973,0,0,1,750.087,920.107Zm-8.96-14.232.6,11.337a1.472,1.472,0,0,0,1.47,1.4h6.889a1.473,1.473,0,0,0,1.471-1.4l.6-11.337Z" transform="translate(-739.545 -904.375)"/></g><g transform="translate(4.803)"><path class="b" d="M750.789,905.875H742.5v-1.437a2.977,2.977,0,0,1,2.973-2.974h2.346a2.977,2.977,0,0,1,2.973,2.974Zm-6.791-1.5h5.29a1.475,1.475,0,0,0-1.472-1.411H745.47A1.475,1.475,0,0,0,744,904.375Z" transform="translate(-742.497 -901.464)"/></g><g transform="translate(5.409 6.37)"><rect class="b" width="1.5" height="8.976"/><g transform="translate(2.789)"><rect class="b" width="1.5" height="8.976"/></g><g transform="translate(5.579)"><rect class="b" width="1.5" height="8.976"/></g></g></g></svg>