<svg xmlns="http://www.w3.org/2000/svg" width="24" height="24" viewBox="0 0 24 24"><defs><style>.a{fill:none;}.b{fill:#513166;}</style></defs><g transform="translate(0 0.001)"><rect class="a" width="24" height="24" transform="translate(0 -0.001)"/><g transform="translate(3.024 3.024)"><path class="b" d="M741.109,987.31a1.01,1.01,0,0,1,1.009,1.009v12.933a1.009,1.009,0,0,1-1.009,1.009H728.176a1.01,1.01,0,0,1-1.009-1.009V988.319a1.011,1.011,0,0,1,1.009-1.009h12.933m0-1.5H728.176a2.509,2.509,0,0,0-2.509,2.509v12.933a2.509,2.509,0,0,0,2.509,2.509h12.933a2.509,2.509,0,0,0,2.509-2.509V988.319a2.509,2.509,0,0,0-2.509-2.509Z" transform="translate(-725.667 -985.81)"/><g transform="translate(4.03 6.318)"><g transform="translate(0 0.723)"><rect class="b" width="8.065" height="1.5" transform="translate(0 5.703) rotate(-45)"/></g><g transform="translate(1.991)"><path class="b" d="M737.159,997.648h-1.5v-4.021h-3.971v-1.5h5.471Z" transform="translate(-731.688 -992.128)"/></g></g></g></g></svg>