<svg xmlns="http://www.w3.org/2000/svg" width="228" height="228" viewBox="0 0 228 228"><defs><style>.a{fill:#eeebf0;}.b{fill:#f4a422;}.c{fill:#513166;}.d{fill:#cbc2d1;}.e{fill:#fff;}.f{fill:none;}</style></defs><g transform="translate(-966 -229)"><g transform="translate(354.523 -181.143)"><circle class="a" cx="93.821" cy="93.821" r="93.821" transform="translate(631.479 433.285)"/><rect class="b" width="113.143" height="105.107" rx="6.171" transform="translate(668.729 485.643)"/><rect class="c" width="113.143" height="52.714" rx="6.171" transform="translate(668.729 427.143)"/><rect class="d" width="55.543" height="6.857" rx="1.56" transform="translate(678.457 443.036)"/><rect class="b" width="86.4" height="6.857" rx="1.945" transform="translate(678.457 457.107)"/><rect class="e" width="55.543" height="6.857" rx="1.56" transform="translate(678.457 496.543)"/><rect class="e" width="86.4" height="6.857" rx="1.945" transform="translate(678.457 510.614)"/><rect class="e" width="86.4" height="6.857" rx="1.945" transform="translate(678.457 524.686)"/><rect class="e" width="86.4" height="6.857" rx="1.945" transform="translate(678.457 538.757)"/><rect class="e" width="86.4" height="6.857" rx="1.945" transform="translate(678.457 552.828)"/><rect class="e" width="86.4" height="6.857" rx="1.945" transform="translate(678.457 566.9)"/></g><rect class="f" width="228" height="228" transform="translate(966 229)"/></g></svg>