<svg xmlns="http://www.w3.org/2000/svg" width="65.726" height="59.824" viewBox="0 0 65.726 59.824"><defs><style>.a{fill:#fff;}.b{fill:#e89925;}</style></defs><g transform="translate(1093.673 280.087)"><rect class="a" width="65.534" height="14.026" transform="translate(-1093.673 -234.29)"/><path class="a" d="M-1053.123-249.3a10.222,10.222,0,0,0-5.117-8.567,20.439,20.439,0,0,0-2.242-1.05c.287-.193.488-.33.693-.464a9.88,9.88,0,0,0,2.9-2.962,10.957,10.957,0,0,0,1.609-6.471,11.27,11.27,0,0,0-2.167-6.368,11.96,11.96,0,0,0-10.093-4.878c-8.241-.051-16.485-.016-24.726-.016-.814,0-.814,0-.814.826v42.568h29.985c.016,0,.031,0,.047-.008,3.443-.74,6.306-2.254,8.225-5.275A11.729,11.729,0,0,0-1053.123-249.3Zm-28.034-20.757c0-.421.2-.484.543-.484,1.636.008,3.277,0,4.913,0v0c1.506,0,3.013,0,4.52,0a5.489,5.489,0,0,1,1.357.193,3.443,3.443,0,0,1,2.643,3.93c-.157,2.529-1.809,3.45-3.878,3.5-3.21.079-6.419.024-9.629.031-.327,0-.468-.1-.468-.448C-1081.145-265.573-1081.141-267.815-1081.156-270.057Zm15.907,21.618a3.5,3.5,0,0,1-2.919,2.258,6.6,6.6,0,0,1-1.365.118c-1.754,0-3.5,0-5.255,0-1.916,0-3.831-.012-5.747.008-.456,0-.629-.114-.626-.6.024-2.195.02-4.386,0-6.581,0-.425.118-.57.555-.566,3.784.016,7.564-.012,11.348.02a4.214,4.214,0,0,1,3.371,1.322A3.936,3.936,0,0,1-1065.25-248.438Z" transform="translate(-0.361)"/><path class="a" d="M-973.644-220.652v-.534c0-2.114.007-4.228-.005-6.342a.624.624,0,0,1,.5-.711c2.425-.753,4.842-1.531,7.261-2.3.579-.184.6-.168.6.455q0,11.455,0,22.911c0,.671-.011.68-.694.68-1.983,0-3.966-.008-5.948.007a1,1,0,0,1-.874-.422q-4.4-5.608-8.816-11.2c-.119-.151-.247-.294-.386-.46a.973.973,0,0,0-.063.556q-.006,5.432,0,10.865c0,.651,0,.655-.66.655-2.344,0-4.687-.01-7.03.009-.474,0-.621-.155-.62-.623q.017-10.2,0-20.4a.683.683,0,0,1,.516-.76q3.122-1.122,6.225-2.294a.61.61,0,0,1,.768.193q4.455,4.783,8.924,9.553a1.583,1.583,0,0,1,.157.244Z" transform="translate(-62.662 -29.997)"/><path class="b" d="M-947.88-241.153c0-1.014.007-2.029,0-3.043,0-.364.112-.428.433-.266q3.746,1.889,7.5,3.767c.107.054.282.083.254.251-.021.128-.173.135-.278.17-2.484.821-4.971,1.637-7.452,2.466-.375.125-.459,0-.455-.351C-947.872-239.157-947.88-240.155-947.88-241.153Z" transform="translate(-88.443 -21.562)"/><path class="b" d="M-990.346-241.188c0-1,0-2,0-2.993,0-.139-.056-.319.107-.4.137-.067.242.065.345.135q2.879,1.962,5.752,3.93c.116.079.311.137.278.3-.029.152-.223.174-.357.225-1.88.714-3.764,1.42-5.64,2.143-.389.15-.5.029-.492-.353C-990.338-239.192-990.346-240.19-990.346-241.188Z" transform="translate(-62.68 -21.53)"/><g transform="translate(-1091.389 -232.29)"><path class="b" d="M-1087.865-157.5a9.8,9.8,0,0,1,1.847-.162,3.234,3.234,0,0,1,2.148.569,1.642,1.642,0,0,1,.65,1.382,1.858,1.858,0,0,1-1.324,1.719v.023a2.018,2.018,0,0,1,1.614,1.963,2.109,2.109,0,0,1-.662,1.568,3.931,3.931,0,0,1-2.706.732,11.911,11.911,0,0,1-1.568-.092Zm1.01,3.206h.918c1.068,0,1.7-.557,1.7-1.313,0-.917-.7-1.277-1.719-1.277a4.325,4.325,0,0,0-.894.07Zm0,3.751a5.443,5.443,0,0,0,.848.046c1.045,0,2.009-.383,2.009-1.521,0-1.069-.917-1.51-2.021-1.51h-.836Z" transform="translate(1087.865 158.018)"/><path class="b" d="M-1071.889-149.1a1.8,1.8,0,0,0,1.928,1.951,3.7,3.7,0,0,0,1.556-.29l.174.731a4.549,4.549,0,0,1-1.87.349,2.61,2.61,0,0,1-2.764-2.834c0-1.7,1-3.031,2.636-3.031a2.381,2.381,0,0,1,2.323,2.648,3.873,3.873,0,0,1-.035.476Zm3-.732a1.456,1.456,0,0,0-1.417-1.661,1.693,1.693,0,0,0-1.567,1.661Z" transform="translate(1078.765 154.722)"/><path class="b" d="M-1057.813-151.9l1.231,3.321c.128.372.267.813.36,1.15h.023c.1-.337.221-.767.36-1.173l1.115-3.3h1.08l-1.533,4.007c-.732,1.928-1.231,2.915-1.928,3.519a2.775,2.775,0,0,1-1.254.662l-.256-.86a2.689,2.689,0,0,0,.895-.5,3.1,3.1,0,0,0,.859-1.138.733.733,0,0,0,.081-.244.9.9,0,0,0-.069-.267l-2.079-5.18Z" transform="translate(1070.31 154.525)"/><path class="b" d="M-1038.966-149.333a2.747,2.747,0,0,1-2.8,2.985,2.672,2.672,0,0,1-2.694-2.892,2.745,2.745,0,0,1,2.787-2.985A2.662,2.662,0,0,1-1038.966-149.333Zm-4.459.059c0,1.231.708,2.16,1.707,2.16.976,0,1.708-.917,1.708-2.184,0-.952-.476-2.16-1.684-2.16S-1043.425-150.344-1043.425-149.275Z" transform="translate(1061.532 154.722)"/><path class="b" d="M-1027.288-150.576c0-.58-.011-1.057-.046-1.521h.906l.058.929h.023a2.068,2.068,0,0,1,1.858-1.057c.778,0,1.986.465,1.986,2.392v3.356h-1.022v-3.24c0-.906-.337-1.661-1.3-1.661a1.452,1.452,0,0,0-1.37,1.045,1.474,1.474,0,0,0-.07.476v3.38h-1.022Z" transform="translate(1051.144 154.722)"/><path class="b" d="M-1006.6-158.573v6.794c0,.5.012,1.068.046,1.451h-.918l-.047-.975h-.023a2.079,2.079,0,0,1-1.916,1.1c-1.359,0-2.4-1.15-2.4-2.857-.012-1.87,1.15-3.02,2.52-3.02a1.88,1.88,0,0,1,1.7.859h.023v-3.356Zm-1.022,4.913a1.793,1.793,0,0,0-.047-.43,1.5,1.5,0,0,0-1.475-1.185c-1.057,0-1.683.929-1.683,2.172,0,1.138.557,2.079,1.661,2.079a1.536,1.536,0,0,0,1.5-1.22,1.762,1.762,0,0,0,.047-.441Z" transform="translate(1041.757 158.573)"/><path class="b" d="M-987.826-149.682v-7.828h1.1l2.508,3.96a22.142,22.142,0,0,1,1.405,2.543l.023-.011c-.093-1.045-.116-2-.116-3.217v-3.275h.952v7.828h-1.022l-2.486-3.972a24.84,24.84,0,0,1-1.463-2.613l-.035.011c.058.987.081,1.928.081,3.229v3.345Z" transform="translate(1027.176 157.928)"/><path class="b" d="M-968.543-149.1a1.8,1.8,0,0,0,1.928,1.951,3.7,3.7,0,0,0,1.556-.29l.174.731a4.545,4.545,0,0,1-1.87.349,2.61,2.61,0,0,1-2.764-2.834c0-1.7,1-3.031,2.636-3.031a2.381,2.381,0,0,1,2.323,2.648,3.878,3.878,0,0,1-.035.476Zm3-.732a1.455,1.455,0,0,0-1.417-1.661,1.694,1.694,0,0,0-1.568,1.661Z" transform="translate(1016.07 154.722)"/><path class="b" d="M-954.469-151.9l.8,1.208c.209.314.383.6.569.917h.035c.186-.336.372-.627.558-.929l.789-1.2h1.1l-1.917,2.717,1.974,2.9h-1.162l-.824-1.266c-.221-.325-.407-.638-.6-.975h-.023c-.186.337-.383.639-.592.975l-.813,1.266H-955.7l2-2.869-1.9-2.752Z" transform="translate(1007.687 154.525)"/><path class="b" d="M-939.48-156v1.614h1.464v.778h-1.464v3.031c0,.7.2,1.092.766,1.092a2.268,2.268,0,0,0,.592-.07l.047.767a2.51,2.51,0,0,1-.906.139,1.418,1.418,0,0,1-1.1-.43,2.084,2.084,0,0,1-.395-1.463v-3.066h-.871v-.778h.871v-1.348Z" transform="translate(998.981 157.014)"/></g></g></svg>