<svg xmlns="http://www.w3.org/2000/svg" width="32" height="32" viewBox="0 0 32 32"><defs><style>.a{fill:#513166;}.b{fill:#fff;}</style></defs><rect class="a" width="32" height="32" rx="8"/><g transform="translate(5.575 3.081)"><path class="b" d="M447.429,507.177c-.053.169-.106.349-.169.518a.314.314,0,0,1-.021.074c-.053.148-.1.285-.159.422a8.468,8.468,0,0,1-.359.866,10.117,10.117,0,0,1-1.9,2.884.055.055,0,0,1-.042.031,9.762,9.762,0,0,1-7.392,3.411c-6.676,0-11.758-7.72-10.635-13.994a7.71,7.71,0,0,1,2.714-4.488,2.283,2.283,0,0,0,3.57,2.788,3.815,3.815,0,0,0,.823-2.967,14.417,14.417,0,0,1-.148-3.157,4.338,4.338,0,0,1,4.351-3.539,2.371,2.371,0,0,0-.6,2.556,4.821,4.821,0,0,0,1.689,2.164c.739.57,1.553,1.035,2.26,1.637a8.4,8.4,0,0,1,2.662,8.564,5.7,5.7,0,0,0,2.408-3.569,5.791,5.791,0,0,0-.57-3.845A12.346,12.346,0,0,1,447.429,507.177Z" transform="translate(-426.595 -490.021)"/><path d="M431.814,508.277c-.016.9,1.01,1.737,1.824,1.942a1.522,1.522,0,0,0,1.759-.734,1.811,1.811,0,0,0-.035-1.288c-.143-.416-.357-.8-.481-1.227a3.032,3.032,0,0,1,3.067-3.883,1.837,1.837,0,0,0-1.019,2.376c.391.881,1.406,1.287,2.039,2.014a2.832,2.832,0,0,1,.56,2.655c-.086.278-.216.541-.277.824a.985.985,0,0,0,.141.83.873.873,0,0,0,.912.23,1.894,1.894,0,0,0,.811-.559,4.763,4.763,0,0,0,1.282-3.216c-.006,1.982.342,3.762-1.181,5.346a4.991,4.991,0,0,1-5.765.875,6.694,6.694,0,0,1-2.728-2.371A6.5,6.5,0,0,1,431.814,508.277Z" transform="translate(-426.672 -490.215)"/></g></svg>