<svg xmlns="http://www.w3.org/2000/svg" width="23.317" height="23.948" viewBox="0 0 23.317 23.948"><defs><style>.a{fill:#281833;}.b{fill:#cbc2d1;}</style></defs><path class="a" d="M409.083,742.534l-2.2-1.72a8.335,8.335,0,0,0,.049-.9,8.5,8.5,0,0,0-.049-.9l2.2-1.719a1.072,1.072,0,0,0,.262-1.38l-2.283-3.954a1.066,1.066,0,0,0-1.331-.476l-2.594,1.04a8.944,8.944,0,0,0-1.554-.9l-.4-2.749a1.068,1.068,0,0,0-1.059-.923H395.54a1.061,1.061,0,0,0-1.059.913l-.4,2.759a9.183,9.183,0,0,0-1.555.9l-2.6-1.04a1.071,1.071,0,0,0-1.311.466l-2.293,3.964a1.07,1.07,0,0,0,.262,1.38l2.2,1.719c-.029.34-.048.632-.048.9s.019.573.048.9l-2.205,1.73a1.07,1.07,0,0,0-.253,1.37l2.283,3.963a1.071,1.071,0,0,0,1.331.476l2.594-1.049a9.618,9.618,0,0,0,1.555.913l.4,2.75a1.062,1.062,0,0,0,1.059.923h4.585a1.062,1.062,0,0,0,1.059-.914l.4-2.759a10.029,10.029,0,0,0,1.554-.913l2.6,1.049a1.042,1.042,0,0,0,1.311-.466l2.3-3.983A1.079,1.079,0,0,0,409.083,742.534Zm-11.25,1.37a3.988,3.988,0,1,1,3.993-3.993A3.993,3.993,0,0,1,397.833,743.9Z" transform="translate(-386.173 -727.942)"/><g transform="translate(-386.173 -727.942)"><path class="b" d="M397.833,744.654a4.738,4.738,0,1,1,4.743-4.743A4.748,4.748,0,0,1,397.833,744.654Zm0-7.976a3.238,3.238,0,1,0,3.243,3.233A3.241,3.241,0,0,0,397.833,736.678Z"/></g></svg>