<svg xmlns="http://www.w3.org/2000/svg" width="24.897" height="23.667" viewBox="0 0 24.897 23.667"><defs><style>.a{fill:#281833;}.b{fill:#cbc2d1;}</style></defs><g transform="translate(-340 -728.224)"><path class="a" d="M364.807,740.136a1.256,1.256,0,0,1-1.183.819H361.84v10.2a.74.74,0,0,1-.737.737h-5.737v-6.93h-5.5v6.93H343.8a.74.74,0,0,1-.737-.737v-10.2h-1.784a1.276,1.276,0,0,1-.861-2.22l11.173-10.177a1.275,1.275,0,0,1,1.722,0l11.173,10.177A1.267,1.267,0,0,1,364.807,740.136Z"/></g><g transform="translate(-340 -728.224)"><path class="b" d="M356.116,751.89h-1.5v-6.18h-4v6.18h-1.5v-7.68h7Z"/></g></svg>