<svg xmlns="http://www.w3.org/2000/svg" width="23.487" height="24" viewBox="0 0 23.487 24"><defs><style>.a{fill:#513166;}.b{fill:#e89925;}</style></defs><g transform="translate(-430.406 -727.89)"><path class="a" d="M432.948,744.339a3.359,3.359,0,0,0,3.336,3.355,2.21,2.21,0,1,0,1.947,0h8.537a2.21,2.21,0,1,0,1.949,0h1.822a.813.813,0,0,0,0-1.625H436.3a1.732,1.732,0,0,1-1.729-1.73v-1.321a3.335,3.335,0,0,0,1.729.481h11.439a4.369,4.369,0,0,0,4.022-3.034l2.1-7.344a.812.812,0,0,0-.781-1.036H434.574v-.84a3.359,3.359,0,0,0-3.355-3.355.813.813,0,1,0,0,1.625,1.731,1.731,0,0,1,1.729,1.73Z"/></g><g transform="translate(-430.406 -727.89)"><rect class="b" width="1.5" height="7.58" transform="translate(441.419 735.919)"/><path class="b" d="M439.887,738.688l-1.061-1.061,3.33-3.329,3.318,3.317-1.061,1.061-2.258-2.257Z"/></g></svg>