<svg xmlns="http://www.w3.org/2000/svg" width="23.487" height="24" viewBox="0 0 23.487 24"><defs><style>.a{fill:#281833;}.b{fill:#cbc2d1;}</style></defs><g transform="translate(-465.622 -727.89)"><path class="a" d="M468.164,744.339a3.358,3.358,0,0,0,3.335,3.355,2.21,2.21,0,1,0,1.948,0h8.536a2.21,2.21,0,1,0,1.949,0h1.822a.813.813,0,0,0,0-1.625H471.518a1.732,1.732,0,0,1-1.729-1.73v-1.321a3.335,3.335,0,0,0,1.729.481h11.44a4.368,4.368,0,0,0,4.021-3.034l2.1-7.344a.813.813,0,0,0-.782-1.036H469.789v-.84a3.359,3.359,0,0,0-3.355-3.355.813.813,0,0,0,0,1.625,1.732,1.732,0,0,1,1.73,1.73Z"/></g><g transform="translate(-465.622 -727.89)"><rect class="b" width="1.5" height="7.683" transform="translate(476.596 732.085)"/><path class="b" d="M477.359,741.388l-3.318-3.318,1.061-1.061,2.258,2.258,2.269-2.27,1.061,1.061Z"/></g></svg>