<svg xmlns="http://www.w3.org/2000/svg" xmlns:xlink="http://www.w3.org/1999/xlink" width="487" height="294" viewBox="0 0 487 294"><defs><style>.a{fill:#fff;stroke:#513166;stroke-dasharray:8;}.b,.e{fill:none;}.b{stroke:#707070;opacity:0.29;}.c{fill:#513166;}.d{stroke:none;}.f{filter:url(#e);}.g{filter:url(#c);}.h{filter:url(#a);}</style><filter id="a" x="0" y="0" width="487" height="294" filterUnits="userSpaceOnUse"><feOffset dx="-6" dy="7" input="SourceAlpha"/><feGaussianBlur stdDeviation="9" result="b"/><feFlood flood-opacity="0.502"/><feComposite operator="in" in2="b"/><feComposite in="SourceGraphic"/></filter><filter id="c" x="123.269" y="73.057" width="252.462" height="140.887" filterUnits="userSpaceOnUse"><feOffset dy="3" input="SourceAlpha"/><feGaussianBlur stdDeviation="3" result="d"/><feFlood flood-opacity="0.161"/><feComposite operator="in" in2="d"/><feComposite in="SourceGraphic"/></filter><filter id="e" x="123.269" y="73.057" width="252.462" height="140.887" filterUnits="userSpaceOnUse"><feOffset dy="3" input="SourceAlpha"/><feGaussianBlur stdDeviation="3" result="f"/><feFlood flood-opacity="0.161"/><feComposite operator="in" in2="f"/><feComposite in="SourceGraphic"/></filter></defs><g transform="translate(-394 -368)"><g class="h" transform="matrix(1, 0, 0, 1, 394, 368)"><g class="a" transform="translate(33 20)"><rect class="d" width="433" height="240" rx="12"/><rect class="e" x="0.5" y="0.5" width="432" height="239" rx="11.5"/></g></g><g class="g" transform="matrix(1, 0, 0, 1, 394, 368)"><line class="b" x2="234" y2="122" transform="translate(132.5 79.5)"/></g><g class="f" transform="matrix(1, 0, 0, 1, 394, 368)"><line class="b" x1="234" y2="122" transform="translate(132.5 79.5)"/></g><g transform="translate(628.999 495.935)"><g transform="translate(0 0.065)"><g transform="translate(0 0)"><g transform="translate(0 0)"><path class="c" d="M28.5,3.816A3.115,3.115,0,0,0,26.173,2.8H21.521V2.74A2.66,2.66,0,0,0,20.764.85,2.519,2.519,0,0,0,18.943.065H10.536A2.534,2.534,0,0,0,8.687.85,2.711,2.711,0,0,0,7.93,2.74V2.8H3.307A3.115,3.115,0,0,0,.981,3.816,3.521,3.521,0,0,0,0,6.229V20.707A3.349,3.349,0,0,0,.981,23.12a3.273,3.273,0,0,0,2.326,1.018H26.173A3.115,3.115,0,0,0,28.5,23.12a3.521,3.521,0,0,0,.981-2.413V6.229A3.349,3.349,0,0,0,28.5,3.816Zm-.476,16.892h-.028a1.9,1.9,0,0,1-.532,1.337,1.767,1.767,0,0,1-1.289.552H3.307a1.767,1.767,0,0,1-1.289-.552,1.9,1.9,0,0,1-.532-1.337V6.229a1.9,1.9,0,0,1,.532-1.337,1.767,1.767,0,0,1,1.289-.552H8.715a.768.768,0,0,0,.757-.785V2.711A1.165,1.165,0,0,1,9.78,1.9a1.08,1.08,0,0,1,.785-.32h8.379a1.08,1.08,0,0,1,.785.32,1.166,1.166,0,0,1,.308.814v.843a.768.768,0,0,0,.757.785H26.2a1.767,1.767,0,0,1,1.289.552,1.9,1.9,0,0,1,.532,1.337Z" transform="translate(0 -0.065)"/><path class="c" d="M15.673,7.059A6.783,6.783,0,0,0,10.8,9.152a7.351,7.351,0,0,0,0,10.117,6.725,6.725,0,0,0,9.752,0,7.351,7.351,0,0,0,0-10.117A6.782,6.782,0,0,0,15.673,7.059Zm3.811,11.135a5.274,5.274,0,0,1-7.622,0,5.665,5.665,0,0,1-1.569-3.954,5.792,5.792,0,0,1,1.569-3.954,5.261,5.261,0,0,1,3.811-1.628,5.377,5.377,0,0,1,3.811,1.628,5.665,5.665,0,0,1,1.569,3.954A5.545,5.545,0,0,1,19.484,18.194Z" transform="translate(-0.933 -0.808)"/><ellipse class="c" cx="1.373" cy="1.425" rx="1.373" ry="1.425" transform="translate(23.342 6.222)"/></g></g></g></g></g></svg>