<svg xmlns="http://www.w3.org/2000/svg" width="18.564" height="17.948" viewBox="0 0 18.564 17.948"><defs><style>.a{fill:#513166;}</style></defs><g transform="translate(-859.983 -887.214)"><path class="a" d="M867.062,888.3a4.645,4.645,0,0,1,0,6.105,4.11,4.11,0,0,1-2.942,1.083,4.172,4.172,0,0,1-2.991-1.083,4.639,4.639,0,0,1,0-6.105,4.172,4.172,0,0,1,2.991-1.083A4.11,4.11,0,0,1,867.062,888.3Zm9-.838-9.5,17.456H862.5l9.5-17.456Zm-12.925,5.086a1.134,1.134,0,0,0,.935.43,1.235,1.235,0,0,0,.985-.43,2.12,2.12,0,0,0,0-2.388,1.234,1.234,0,0,0-.985-.432,1.133,1.133,0,0,0-.935.432,2.241,2.241,0,0,0,0,2.388Zm14.279,5.4A4.024,4.024,0,0,1,878.547,901a4.093,4.093,0,1,1-8.174,0,4,4,0,0,1,1.146-3.053,4.553,4.553,0,0,1,5.9,0ZM873.5,902.22a1.271,1.271,0,0,0,1.908,0,1.859,1.859,0,0,0,.358-1.219,1.819,1.819,0,0,0-.358-1.194,1.272,1.272,0,0,0-1.908,0,1.863,1.863,0,0,0-.345,1.194A1.905,1.905,0,0,0,873.5,902.22Z" transform="translate(0 0)"/></g></svg>