<svg xmlns="http://www.w3.org/2000/svg" width="32" height="32" viewBox="0 0 32 32"><defs><style>.a{fill:#513166;}.b{fill:#fff;}</style></defs><g transform="translate(0 0.105)"><rect class="a" width="32" height="32" rx="8" transform="translate(0 -0.105)"/><g transform="translate(-1189 -419.105)"><g transform="translate(1197 422.999)"><path class="b" d="M432.235,739.728a2.418,2.418,0,0,0,2.4,2.414,1.591,1.591,0,1,0,1.4,0h6.144a1.591,1.591,0,1,0,1.4,0H444.9a.585.585,0,0,0,0-1.169H434.65a1.246,1.246,0,0,1-1.244-1.245v-.951a2.4,2.4,0,0,0,1.244.346h8.232a3.145,3.145,0,0,0,2.895-2.183l1.51-5.285a.584.584,0,0,0-.562-.746H433.406v-.6a2.417,2.417,0,0,0-2.414-2.414.585.585,0,1,0,0,1.169,1.246,1.246,0,0,1,1.244,1.245Z" transform="translate(-430.406 -727.89)"/></g><g transform="translate(1202.401 426.495)"><g transform="translate(2.593 1.62)"><rect class="a" width="1.5" height="7.58"/></g><path class="a" d="M439.887,738.688l-1.061-1.061,3.33-3.329,3.318,3.317-1.061,1.061-2.258-2.257Z" transform="translate(-438.826 -734.299)"/></g><g transform="translate(1193 416)"><rect class="b" width="15" height="1" rx="0.5" transform="translate(4 29.895)"/><rect class="b" width="10" height="1" rx="0.5" transform="translate(9 27.895)"/><rect class="b" width="7" height="1" rx="0.5" transform="translate(12 25.895)"/></g></g></g></svg>