<svg xmlns="http://www.w3.org/2000/svg" width="32" height="32" viewBox="0 0 32 32"><defs><style>.a,.b{fill:#513166;}.b{stroke:#fff;}.c{fill:#fff;}</style></defs><g transform="translate(0 -0.201)"><rect class="a" width="32" height="32" rx="8" transform="translate(0 0.201)"/><rect class="b" width="29" height="29" rx="8" transform="translate(1.5 1.701)"/><g transform="translate(-3.403)"><path class="c" d="M3.443-.976h.806v-.941A2.515,2.515,0,0,0,6.84-4.248c0-1.619-1.351-1.929-2.591-2.2v-2.48a1.208,1.208,0,0,1,.992,1.022H6.753a2.385,2.385,0,0,0-2.5-2.135v-.93H3.443v.941c-1.537.126-2.6,1.01-2.6,2.3C.84-6.12,2.2-5.8,3.443-5.511v2.526A1.18,1.18,0,0,1,2.352-4.1H.84c0,1.3,1.091,2.067,2.6,2.193Zm1.971-3.2A1.226,1.226,0,0,1,4.249-2.985V-5.316C4.919-5.121,5.414-4.834,5.414-4.179ZM2.278-7.807a1.151,1.151,0,0,1,1.165-1.16v2.319C2.774-6.843,2.278-7.141,2.278-7.807Z" transform="translate(12.564 22.178)"/><rect class="c" width="2" height="17" transform="translate(22 9.201)"/><path class="c" d="M2,0,4,5H0Z" transform="translate(21 6.201)"/></g></g></svg>