<svg xmlns="http://www.w3.org/2000/svg" width="32" height="32" viewBox="0 0 32 32"><defs><style>.a,.b{fill:#513166;}.b{stroke:#fff;}.c{fill:#fff;}</style></defs><g transform="translate(0 -0.201)"><rect class="a" width="32" height="32" rx="8" transform="translate(0 0.201)"/><rect class="b" width="29" height="29" rx="8" transform="translate(1.5 1.701)"/><path class="c" d="M6.047,9.024H7.658V7.141c3.347-.276,5.182-2.434,5.182-4.661,0-3.238-2.7-3.858-5.182-4.409v-4.96A2.417,2.417,0,0,1,9.642-4.845h3.025c-.223-2.595-2.157-4.041-5.008-4.271v-1.86H6.047v1.883C2.972-8.841.84-7.072.84-4.5.84-1.263,3.567-.62,6.047-.046V5.006A2.36,2.36,0,0,1,3.865,2.778H.84c0,2.595,2.182,4.133,5.207,4.386ZM9.989,2.618A2.452,2.452,0,0,1,7.658,5.006V.344C9,.735,9.989,1.309,9.989,2.618ZM3.716-4.638A2.3,2.3,0,0,1,6.047-6.958v4.638C4.708-2.71,3.716-3.307,3.716-4.638Z" transform="translate(9.16 17.179)"/></g></svg>