<svg xmlns="http://www.w3.org/2000/svg" width="32" height="32" viewBox="0 0 32 32"><defs><style>.a{fill:#513166;}.b{fill:#fff;}</style></defs><g transform="translate(0 0.223)"><rect class="a" width="32" height="32" rx="8" transform="translate(0 -0.223)"/><g transform="translate(-1454.22 -422.224)"><g transform="translate(-106.781 242.973)"><path class="b" d="M1.383,0h0A1.383,1.383,0,0,1,2.765,1.383v8.38a0,0,0,0,1,0,0H0a0,0,0,0,1,0,0V1.383A1.383,1.383,0,0,1,1.383,0Z" transform="translate(1568 196.581)"/><path class="b" d="M1.383,0h0A1.383,1.383,0,0,1,2.765,1.383V13.739a0,0,0,0,1,0,0H0a0,0,0,0,1,0,0V1.383A1.383,1.383,0,0,1,1.383,0Z" transform="translate(1576.019 192.604)"/><path class="b" d="M1.383,0h0A1.383,1.383,0,0,1,2.765,1.383V19.344a0,0,0,0,1,0,0H0a0,0,0,0,1,0,0V1.383A1.383,1.383,0,0,1,1.383,0Z" transform="translate(1584.038 187)"/></g><g transform="translate(-77.545 74.641) rotate(7)"><path class="b" d="M.352,0H20.336a0,0,0,0,1,0,0V.7a0,0,0,0,1,0,0H.352A.352.352,0,0,1,0,.352v0A.352.352,0,0,1,.352,0Z" transform="translate(1571.564 172.503) rotate(-43)"/><path class="b" d="M1.057,0,2.114,1.879H0Z" transform="translate(1586.919 157.006) rotate(43)"/></g></g></g></svg>